<?xml version="1.0" encoding="utf-8"?>
<!-- Generator: Adobe Illustrator 24.0.0, SVG Export Plug-In . SVG Version: 6.00 Build 0)  -->
<svg version="1.1" id="Layer_1" xmlns="http://www.w3.org/2000/svg" xmlns:xlink="http://www.w3.org/1999/xlink" x="0px" y="0px"
	 viewBox="0 0 255.5 92.6" style="enable-background:new 0 0 255.5 92.6;" xml:space="preserve">
<style type="text/css">
	.st0{enable-background:new    ;}
	.st1{fill:#333333;}
	.st2{fill:none;stroke:#15023A;stroke-width:0.6069;stroke-miterlimit:2.4276;}
</style>
<g class="st0">
	<path class="st1" d="M50,55.6h0.9c2.4,0.1,3.6,1.2,3.6,3.2c0,1.3-0.5,2.3-1.5,3.2c-1,0.9-2.2,1.4-3.7,1.4h-0.8h-7.2
		c-1.6,0-2.8-0.4-3.8-1.2c-1-0.8-1.5-1.9-1.5-3.1c0-0.5,0.1-1.1,0.3-1.8c0.2-0.7,0.4-1.4,0.7-2.1l3.3-8.2c0.2-0.4,0.3-0.9,0.3-1.2
		c0-0.7-0.2-1.3-0.7-1.7c-0.4-0.4-1-0.6-1.8-0.6c-1.2,0-2.3,0.5-3.5,1.6c-1.2,1.1-2.1,2.5-2.8,4.3l-4,9.9c-0.7,1.8-1.5,3.1-2.4,3.8
		c-0.9,0.8-1.9,1.1-3.2,1.1c-1,0-1.9-0.3-2.6-0.9c-0.7-0.6-1-1.4-1-2.4c0-0.7,0.2-1.6,0.5-2.5l0.4-0.9l4-9.9
		c0.3-0.8,0.5-1.5,0.5-2.1c0-0.5-0.2-1-0.7-1.4c-0.5-0.4-1.1-0.5-1.8-0.5c-1.1,0-2.2,0.5-3.4,1.5c-1.1,1-2,2.4-2.7,4l-4.2,10.2
		L11,60c-1.1,2.7-2.8,4-5.2,4c-1,0-1.9-0.3-2.6-0.9c-0.7-0.6-1.1-1.4-1.1-2.4c0-0.8,0.2-1.6,0.6-2.5l0.4-0.9l7.1-17.4
		c0.5-1.3,1.1-2.3,1.8-2.8c0.7-0.6,1.6-0.8,2.7-0.8c2.1,0,3.4,1,3.8,2.9c0.8-0.7,1.6-1.2,2.2-1.7c0.6-0.4,1.2-0.8,1.8-1.1
		c0.6-0.3,1.1-0.4,1.8-0.5c0.6-0.1,1.3-0.1,2-0.1c1.7,0,3.1,0.3,4.2,0.9c1.1,0.6,2.1,1.7,2.9,3.2c1.3-1.4,2.7-2.4,4.2-3.1
		c1.6-0.7,3.1-1.1,4.7-1.1c2.3,0,4.3,0.6,5.8,1.9c1.5,1.3,2.3,2.9,2.3,4.9c0,1.1-0.2,2.4-0.7,3.7l-3.9,9.3H50z"/>
	<path class="st1" d="M84.2,55.6h0.9c2.4,0.1,3.6,1.2,3.6,3.2c0,1.3-0.5,2.3-1.5,3.2c-1,0.9-2.2,1.4-3.7,1.4h-0.9h-4.6
		c-2,0-3.4-0.8-4.1-2.4l-0.7,0.6c-0.8,0.7-1.5,1.2-2.2,1.4c-0.7,0.3-1.4,0.4-2.4,0.4h-4.3c-2.5,0-4.6-0.9-6.2-2.8
		c-1.6-1.9-2.4-4.3-2.4-7.4c0-2.2,0.4-4.4,1.3-6.5s2-4,3.5-5.6c1.4-1.6,3.1-2.9,4.9-3.9c1.8-1,3.8-1.5,5.8-1.5c3,0,5.2,1,6.6,3.1
		c0.6-1,1.3-1.7,2-2c0.7-0.4,1.6-0.6,2.6-0.6s1.9,0.3,2.6,0.9c0.7,0.6,1.1,1.4,1.1,2.3c0,0.5-0.1,1-0.2,1.4
		c-0.1,0.4-0.4,1.1-0.8,2.1l-5.2,12.6H84.2z M74.6,47.3l0.2-0.6c0.2-0.4,0.3-0.8,0.3-1.3c0-0.7-0.3-1.3-0.9-1.8
		c-0.6-0.5-1.4-0.8-2.3-0.8s-1.8,0.3-2.7,0.8c-0.9,0.6-1.7,1.3-2.4,2.2c-0.7,0.9-1.3,1.9-1.8,3.1c-0.5,1.1-0.7,2.2-0.7,3.3
		c0,1.1,0.3,2,0.8,2.6c0.5,0.6,1.3,0.9,2.2,0.9h1.4c0.5,0,1.2-0.2,1.9-0.7c0.7-0.4,1.2-0.9,1.4-1.3L74.6,47.3z"/>
	<path class="st1" d="M109.9,36.6c0.6-0.3,1.1-0.5,1.5-0.6c0.4-0.1,0.9-0.2,1.3-0.3c0.4,0,0.9-0.1,1.4-0.1c2.2,0,4.1,0.6,5.5,1.9
		c1.5,1.3,2.2,2.8,2.2,4.7c0,0.6-0.1,1.3-0.2,2c-0.1,0.8-0.3,1.4-0.6,2l-3.8,9.3h4.1h0.9c2.4,0.1,3.7,1.2,3.7,3.2
		c0,1.3-0.5,2.3-1.5,3.2c-1,0.9-2.2,1.4-3.6,1.4h-0.9h-7.2c-1.6,0-2.8-0.4-3.8-1.3c-1-0.9-1.5-2-1.5-3.4c0-0.7,0.1-1.5,0.4-2.2
		l0.4-0.9l3.2-8c0.2-0.5,0.4-1,0.5-1.3c0.1-0.3,0.1-0.7,0.1-0.9c0-0.6-0.3-1.1-0.8-1.5c-0.5-0.4-1.2-0.5-1.9-0.5
		c-2.4,0-4.5,2-6.2,6.1l-3.9,9.9l-0.4,0.9c-1.1,2.6-2.8,3.9-5.2,3.9c-1,0-1.9-0.3-2.6-0.9c-0.7-0.6-1-1.4-1-2.4
		c0-0.7,0.2-1.5,0.5-2.4l0.4-0.9l15.5-38.3c0.7-1.8,1.5-3,2.4-3.8c0.9-0.8,1.9-1.1,3.2-1.1c1,0,1.9,0.3,2.6,0.9c0.7,0.6,1,1.4,1,2.4
		c0,0.7-0.2,1.5-0.5,2.4l-0.4,0.9l-6.8,16.7C108.7,37.3,109.4,36.9,109.9,36.6z"/>
	<path class="st1" d="M141.2,55.6h0.9c2.4,0.1,3.6,1.2,3.6,3.2c0,1.3-0.5,2.3-1.5,3.2c-1,0.9-2.2,1.4-3.6,1.4h-0.9h-5.6
		c-2.2,0-3.9-0.4-5-1.2c-1.2-0.8-1.8-2-1.8-3.6c0-0.5,0-0.9,0.1-1.3c0.1-0.4,0.3-0.9,0.6-1.7l5.9-14.5l0.4-0.9c1.1-2.7,2.9-4,5.3-4
		c1,0,1.9,0.3,2.6,1c0.7,0.7,1.1,1.5,1.1,2.4c0,0.7-0.2,1.5-0.6,2.4l-0.4,1l-5.1,12.6H141.2z M138.4,33.2c-1-1-1.5-2.1-1.5-3.5
		c0-1.4,0.5-2.5,1.4-3.5c0.9-1,2.1-1.5,3.5-1.5c1.4,0,2.6,0.5,3.6,1.5c1,1,1.5,2.2,1.5,3.6c0,1.4-0.5,2.5-1.4,3.5
		c-0.9,0.9-2.1,1.4-3.5,1.4C140.6,34.6,139.4,34.2,138.4,33.2z"/>
	<path class="st1" d="M154.9,46.9c-0.6,1.5-1.2,2.5-1.9,3.1c-0.7,0.6-1.5,0.9-2.5,0.9c-1,0-1.8-0.3-2.6-0.9
		c-0.7-0.6-1.1-1.4-1.1-2.3c0-0.4,0-0.8,0.1-1.1c0.1-0.3,0.3-0.9,0.7-1.8l4-9.9c0.5-1.3,1.1-2.2,1.7-2.8c0.6-0.5,1.4-0.8,2.4-0.8
		c1.8,0,2.9,0.8,3.3,2.5l0.3,1.1c0.1,0.6,0.4,0.9,0.6,1.1c0.3,0.1,1,0.2,2.1,0.2h8.4h0.9c2.5,0,3.8,1.1,3.8,3.3
		c0,0.8-0.3,1.6-0.8,2.4c-0.5,0.8-1.1,1.4-1.8,1.6c-0.3,0.2-0.7,0.3-1.2,0.4c-0.4,0-1.2,0.1-2.2,0.1l-0.4,0.3c-0.5,0.5-1,1-1.4,1.4
		s-0.7,0.7-1,1s-0.5,0.6-0.8,0.9c-0.2,0.3-0.5,0.7-0.8,1.1c-0.7,1-1.1,1.7-1.4,2.3c-0.2,0.6-0.4,1.1-0.4,1.6c0,2,1.1,3,3.3,3h4.5
		h0.9c2.4,0.1,3.6,1.2,3.6,3.2c0,1.3-0.5,2.3-1.5,3.2c-1,0.9-2.2,1.4-3.6,1.4h-0.9h-7c-0.2,0-0.6,0-1.1-0.1s-1-0.2-1.6-0.4
		c-1.6-0.4-2.9-1.4-3.9-3c-1-1.5-1.5-3.3-1.5-5.4c0-1.7,0.4-3.3,1.2-4.9c0.8-1.6,2.2-3.5,4.2-5.7h-3.7L154.9,46.9z"/>
</g>
<g class="st0">
	<path class="st2" d="M50,55.6h0.9c2.4,0.1,3.6,1.2,3.6,3.2c0,1.3-0.5,2.3-1.5,3.2c-1,0.9-2.2,1.4-3.7,1.4h-0.8h-7.2
		c-1.6,0-2.8-0.4-3.8-1.2c-1-0.8-1.5-1.9-1.5-3.1c0-0.5,0.1-1.1,0.3-1.8c0.2-0.7,0.4-1.4,0.7-2.1l3.3-8.2c0.2-0.4,0.3-0.9,0.3-1.2
		c0-0.7-0.2-1.3-0.7-1.7c-0.4-0.4-1-0.6-1.8-0.6c-1.2,0-2.3,0.5-3.5,1.6c-1.2,1.1-2.1,2.5-2.8,4.3l-4,9.9c-0.7,1.8-1.5,3.1-2.4,3.8
		c-0.9,0.8-1.9,1.1-3.2,1.1c-1,0-1.9-0.3-2.6-0.9c-0.7-0.6-1-1.4-1-2.4c0-0.7,0.2-1.6,0.5-2.5l0.4-0.9l4-9.9
		c0.3-0.8,0.5-1.5,0.5-2.1c0-0.5-0.2-1-0.7-1.4c-0.5-0.4-1.1-0.5-1.8-0.5c-1.1,0-2.2,0.5-3.4,1.5c-1.1,1-2,2.4-2.7,4l-4.2,10.2
		L11,60c-1.1,2.7-2.8,4-5.2,4c-1,0-1.9-0.3-2.6-0.9c-0.7-0.6-1.1-1.4-1.1-2.4c0-0.8,0.2-1.6,0.6-2.5l0.4-0.9l7.1-17.4
		c0.5-1.3,1.1-2.3,1.8-2.8c0.7-0.6,1.6-0.8,2.7-0.8c2.1,0,3.4,1,3.8,2.9c0.8-0.7,1.6-1.2,2.2-1.7c0.6-0.4,1.2-0.8,1.8-1.1
		c0.6-0.3,1.1-0.4,1.8-0.5c0.6-0.1,1.3-0.1,2-0.1c1.7,0,3.1,0.3,4.2,0.9c1.1,0.6,2.1,1.7,2.9,3.2c1.3-1.4,2.7-2.4,4.2-3.1
		c1.6-0.7,3.1-1.1,4.7-1.1c2.3,0,4.3,0.6,5.8,1.9c1.5,1.3,2.3,2.9,2.3,4.9c0,1.1-0.2,2.4-0.7,3.7l-3.9,9.3H50z"/>
	<path class="st2" d="M84.2,55.6h0.9c2.4,0.1,3.6,1.2,3.6,3.2c0,1.3-0.5,2.3-1.5,3.2c-1,0.9-2.2,1.4-3.7,1.4h-0.9h-4.6
		c-2,0-3.4-0.8-4.1-2.4l-0.7,0.6c-0.8,0.7-1.5,1.2-2.2,1.4c-0.7,0.3-1.4,0.4-2.4,0.4h-4.3c-2.5,0-4.6-0.9-6.2-2.8
		c-1.6-1.9-2.4-4.3-2.4-7.4c0-2.2,0.4-4.4,1.3-6.5s2-4,3.5-5.6c1.4-1.6,3.1-2.9,4.9-3.9c1.8-1,3.8-1.5,5.8-1.5c3,0,5.2,1,6.6,3.1
		c0.6-1,1.3-1.7,2-2c0.7-0.4,1.6-0.6,2.6-0.6s1.9,0.3,2.6,0.9c0.7,0.6,1.1,1.4,1.1,2.3c0,0.5-0.1,1-0.2,1.4
		c-0.1,0.4-0.4,1.1-0.8,2.1l-5.2,12.6H84.2z M74.6,47.3l0.2-0.6c0.2-0.4,0.3-0.8,0.3-1.3c0-0.7-0.3-1.3-0.9-1.8
		c-0.6-0.5-1.4-0.8-2.3-0.8s-1.8,0.3-2.7,0.8c-0.9,0.6-1.7,1.3-2.4,2.2c-0.7,0.9-1.3,1.9-1.8,3.1c-0.5,1.1-0.7,2.2-0.7,3.3
		c0,1.1,0.3,2,0.8,2.6c0.5,0.6,1.3,0.9,2.2,0.9h1.4c0.5,0,1.2-0.2,1.9-0.7c0.7-0.4,1.2-0.9,1.4-1.3L74.6,47.3z"/>
	<path class="st2" d="M109.9,36.6c0.6-0.3,1.1-0.5,1.5-0.6c0.4-0.1,0.9-0.2,1.3-0.3c0.4,0,0.9-0.1,1.4-0.1c2.2,0,4.1,0.6,5.5,1.9
		c1.5,1.3,2.2,2.8,2.2,4.7c0,0.6-0.1,1.3-0.2,2c-0.1,0.8-0.3,1.4-0.6,2l-3.8,9.3h4.1h0.9c2.4,0.1,3.7,1.2,3.7,3.2
		c0,1.3-0.5,2.3-1.5,3.2c-1,0.9-2.2,1.4-3.6,1.4h-0.9h-7.2c-1.6,0-2.8-0.4-3.8-1.3c-1-0.9-1.5-2-1.5-3.4c0-0.7,0.1-1.5,0.4-2.2
		l0.4-0.9l3.2-8c0.2-0.5,0.4-1,0.5-1.3c0.1-0.3,0.1-0.7,0.1-0.9c0-0.6-0.3-1.1-0.8-1.5c-0.5-0.4-1.2-0.5-1.9-0.5
		c-2.4,0-4.5,2-6.2,6.1l-3.9,9.9l-0.4,0.9c-1.1,2.6-2.8,3.9-5.2,3.9c-1,0-1.9-0.3-2.6-0.9c-0.7-0.6-1-1.4-1-2.4
		c0-0.7,0.2-1.5,0.5-2.4l0.4-0.9l15.5-38.3c0.7-1.8,1.5-3,2.4-3.8c0.9-0.8,1.9-1.1,3.2-1.1c1,0,1.9,0.3,2.6,0.9c0.7,0.6,1,1.4,1,2.4
		c0,0.7-0.2,1.5-0.5,2.4l-0.4,0.9l-6.8,16.7C108.7,37.3,109.4,36.9,109.9,36.6z"/>
	<path class="st2" d="M141.2,55.6h0.9c2.4,0.1,3.6,1.2,3.6,3.2c0,1.3-0.5,2.3-1.5,3.2c-1,0.9-2.2,1.4-3.6,1.4h-0.9h-5.6
		c-2.2,0-3.9-0.4-5-1.2c-1.2-0.8-1.8-2-1.8-3.6c0-0.5,0-0.9,0.1-1.3c0.1-0.4,0.3-0.9,0.6-1.7l5.9-14.5l0.4-0.9c1.1-2.7,2.9-4,5.3-4
		c1,0,1.9,0.3,2.6,1c0.7,0.7,1.1,1.5,1.1,2.4c0,0.7-0.2,1.5-0.6,2.4l-0.4,1l-5.1,12.6H141.2z M138.4,33.2c-1-1-1.5-2.1-1.5-3.5
		c0-1.4,0.5-2.5,1.4-3.5c0.9-1,2.1-1.5,3.5-1.5c1.4,0,2.6,0.5,3.6,1.5c1,1,1.5,2.2,1.5,3.6c0,1.4-0.5,2.5-1.4,3.5
		c-0.9,0.9-2.1,1.4-3.5,1.4C140.6,34.6,139.4,34.2,138.4,33.2z"/>
	<path class="st2" d="M154.9,46.9c-0.6,1.5-1.2,2.5-1.9,3.1c-0.7,0.6-1.5,0.9-2.5,0.9c-1,0-1.8-0.3-2.6-0.9
		c-0.7-0.6-1.1-1.4-1.1-2.3c0-0.4,0-0.8,0.1-1.1c0.1-0.3,0.3-0.9,0.7-1.8l4-9.9c0.5-1.3,1.1-2.2,1.7-2.8c0.6-0.5,1.4-0.8,2.4-0.8
		c1.8,0,2.9,0.8,3.3,2.5l0.3,1.1c0.1,0.6,0.4,0.9,0.6,1.1s1,0.2,2.1,0.2h8.4h0.9c2.5,0,3.8,1.1,3.8,3.3c0,0.8-0.3,1.6-0.8,2.4
		c-0.5,0.8-1.1,1.4-1.8,1.6c-0.3,0.2-0.7,0.3-1.2,0.4c-0.4,0-1.2,0.1-2.2,0.1l-0.4,0.3c-0.5,0.5-1,1-1.4,1.4c-0.4,0.4-0.7,0.7-1,1
		c-0.3,0.3-0.5,0.6-0.8,0.9c-0.2,0.3-0.5,0.7-0.8,1.1c-0.7,1-1.1,1.7-1.4,2.3c-0.2,0.6-0.4,1.1-0.4,1.6c0,2,1.1,3,3.3,3h4.5h0.9
		c2.4,0.1,3.6,1.2,3.6,3.2c0,1.3-0.5,2.3-1.5,3.2c-1,0.9-2.2,1.4-3.6,1.4h-0.9h-7c-0.2,0-0.6,0-1.1-0.1s-1-0.2-1.6-0.4
		c-1.6-0.4-2.9-1.4-3.9-3c-1-1.5-1.5-3.3-1.5-5.4c0-1.7,0.4-3.3,1.2-4.9c0.8-1.6,2.2-3.5,4.2-5.7h-3.7L154.9,46.9z"/>
</g>
</svg>
